<svg width="33" height="33" viewBox="0 0 33 33" fill="none" xmlns="http://www.w3.org/2000/svg">
<path fill-rule="evenodd" clip-rule="evenodd" d="M7.25238 13.9235C6.875 14.744 6.875 15.6775 6.875 17.5444V23.3749C6.875 25.9676 6.875 27.264 7.68046 28.0695C8.45288 28.8419 9.67677 28.8736 12.0625 28.8749V22C12.0625 20.6883 13.1258 19.625 14.4375 19.625H18.5625C19.8742 19.625 20.9375 20.6883 20.9375 22V28.8749C23.3232 28.8736 24.5471 28.8419 25.3195 28.0695C26.125 27.264 26.125 25.9676 26.125 23.3749V17.5444C26.125 15.6775 26.125 14.744 25.7476 13.9235C25.3702 13.103 24.6615 12.4955 23.244 11.2805L21.869 10.1019C19.307 7.90589 18.0259 6.80786 16.5 6.80786C14.9741 6.80786 13.693 7.90589 11.131 10.1019L9.75597 11.2805C8.3385 12.4955 7.62977 13.103 7.25238 13.9235ZM18.9375 28.8749V22C18.9375 21.7929 18.7696 21.625 18.5625 21.625H14.4375C14.2304 21.625 14.0625 21.7929 14.0625 22V28.8749H18.9375Z" fill="#222222"/>
</svg>
