<svg width="33" height="33" viewBox="0 0 33 33" fill="none" xmlns="http://www.w3.org/2000/svg">
<path d="M22 4.125L22 8.25M11 4.125L11 8.25" stroke="#222222" stroke-width="2" stroke-linecap="round"/>
<path fill-rule="evenodd" clip-rule="evenodd" d="M20 5.5H13L13 8.25C13 9.35457 12.1046 10.25 11 10.25C9.89543 10.25 9 9.35457 9 8.25L9 5.54932C7.23411 5.64324 6.12536 5.91601 5.33318 6.70818C4.125 7.91637 4.125 9.86091 4.125 13.75V20.625C4.125 24.5141 4.125 26.4586 5.33318 27.6668C6.54137 28.875 8.48591 28.875 12.375 28.875H20.625C24.5141 28.875 26.4586 28.875 27.6668 27.6668C28.875 26.4586 28.875 24.5141 28.875 20.625V13.75C28.875 9.86091 28.875 7.91637 27.6668 6.70818C26.8746 5.91601 25.7659 5.64324 24 5.54932L24 8.25C24 9.35457 23.1046 10.25 22 10.25C20.8954 10.25 20 9.35457 20 8.25L20 5.5ZM10 16.5C10 15.9477 10.4477 15.5 11 15.5L22 15.5C22.5523 15.5 23 15.9477 23 16.5C23 17.0523 22.5523 17.5 22 17.5L11 17.5C10.4477 17.5 10 17.0523 10 16.5ZM11 21C10.4477 21 10 21.4477 10 22C10 22.5523 10.4477 23 11 23H22C22.5523 23 23 22.5523 23 22C23 21.4477 22.5523 21 22 21H11Z" fill="#222222"/>
</svg>
