<svg width="33" height="33" viewBox="0 0 33 33" fill="none" xmlns="http://www.w3.org/2000/svg">
<path fill-rule="evenodd" clip-rule="evenodd" d="M16.9031 28.6796C18.885 27.6849 27.5 22.9505 27.5 15.8125C27.5 9.625 22.3667 5.5 16.5 5.5C10.8299 5.5 5.5 9.625 5.5 15.8125C5.5 22.9505 14.115 27.6849 16.0969 28.6796C16.3548 28.8091 16.6452 28.8091 16.9031 28.6796ZM16.2364 20.3475L12.3339 16.2397C11.5497 15.4142 11.4271 14.1612 12.0363 13.1993C13.0509 11.5973 15.4138 11.6768 16.3185 13.3433L16.4142 13.5197C16.4512 13.5877 16.5488 13.5877 16.5858 13.5197L16.6815 13.3433C17.5862 11.6768 19.9491 11.5973 20.9637 13.1993C21.573 14.1612 21.4503 15.4142 20.6661 16.2397L16.7636 20.3475C16.6399 20.4777 16.5781 20.5428 16.5 20.5428C16.4219 20.5428 16.3601 20.4777 16.2364 20.3475Z" fill="#222222"/>
</svg>
