<svg width="33" height="33" viewBox="0 0 33 33" fill="none" xmlns="http://www.w3.org/2000/svg">
<path fill-rule="evenodd" clip-rule="evenodd" d="M10.254 3.86844L19.1936 2.46366C22.4142 1.95756 24.0245 1.70452 25.0747 2.60264C26.125 3.50076 26.125 5.13081 26.125 8.39092V15.4994H17.2056L21.4059 10.2491L19.8441 8.99974L14.3441 15.8747L13.8444 16.4994L14.3441 17.1241L19.8441 23.9991L21.4059 22.7497L17.2056 17.4994H26.125V24.6079C26.125 27.8681 26.125 29.4981 25.0747 30.3962C24.0245 31.2943 22.4142 31.0413 19.1936 30.5352L10.2541 29.1304C8.64132 28.877 7.83495 28.7503 7.35498 28.189C6.875 27.6277 6.875 26.8114 6.875 25.1789V7.81995C6.875 6.18742 6.875 5.37116 7.35498 4.80987C7.83495 4.24858 8.64132 4.12187 10.254 3.86844Z" fill="#222222"/>
</svg>
